<svg width="57" height="57" viewBox="0 0 57 57" fill="none" xmlns="http://www.w3.org/2000/svg">
<rect width="57" height="57" fill="#F2F2F2"/>
<g id="Mobile">
<rect width="375" height="1360" transform="translate(-258 -459)" fill="#FAFAFA"/>
<g id="Group 6">
<g id="Rectangle Copy">
<g id="Mask" filter="url(#filter0_d_0_1)">
<rect x="-226" y="-137" width="311" height="222" rx="8" fill="white"/>
</g>
<mask id="mask0_0_1" style="mask-type:luminance" maskUnits="userSpaceOnUse" x="-226" y="-137" width="311" height="222">
<rect id="Mask_2" x="-226" y="-137" width="311" height="222" rx="8" fill="white"/>
</mask>
<g mask="url(#mask0_0_1)">
</g>
</g>
<g id="030-search">
<path id="Path" d="M50.6247 6.37529C42.1407 -2.14175 28.4465 -2.10826 19.9625 6.37529C12.8149 13.5233 11.5455 24.5787 16.8227 33.0962L14.5848 35.3671L13.3772 40.8396L17.1306 44.593L21.6659 42.4482L23.9038 40.1769C32.4213 45.4545 43.4771 44.2186 50.6247 37.0375C59.1418 28.5535 59.1083 14.8593 50.6247 6.37529Z" fill="#676E74"/>
<path id="Path_2" d="M21.6659 42.4482L23.9038 40.1768C32.4213 45.4545 43.4767 44.2186 50.6247 37.0375C59.1418 28.5535 59.1083 14.8593 50.6247 6.37527L14.7688 42.2312L17.1302 44.593L21.6659 42.4482Z" fill="#474F54"/>
<path id="Path_3" d="M48.2834 8.71665C44.9592 5.39203 40.3665 3.33594 35.2937 3.33594C25.148 3.33594 16.9232 11.5607 16.9232 21.7064C16.9232 26.7792 18.9793 31.3719 22.3035 34.6965C25.6281 38.0207 30.2208 40.0768 35.2937 40.0768C45.4393 40.0768 53.6641 31.852 53.6641 21.7064C53.6641 16.6336 51.608 12.0408 48.2834 8.71665Z" fill="#64E1DC"/>
<path id="Path_4" d="M53.6641 21.7064C53.6641 16.6336 51.608 12.0408 48.2834 8.71664L22.3035 34.6965C25.6281 38.0207 30.2208 40.0768 35.2936 40.0768C45.4393 40.0768 53.6641 31.852 53.6641 21.7064Z" fill="#00C8C8"/>
<path id="Path_5" d="M50.0876 20.8501C49.9237 20.5761 47.4336 16.4731 43.6032 13.3968C41.2605 11.5146 38.4178 10.0161 35.2936 10.0161C27.0623 10.0161 20.764 20.4083 20.4996 20.8501L19.9873 21.7064L20.4996 22.5626C20.6635 22.8371 23.1532 26.9401 26.9836 30.0164C29.3267 31.8981 32.1695 33.3967 35.2936 33.3967C43.5249 33.3967 49.8232 23.0045 50.0876 22.5626L50.5995 21.7064L50.0876 20.8501Z" fill="#EFEFF4"/>
<path id="Path_6" d="M50.0877 22.5627L50.5996 21.7064L50.0877 20.8501C49.9238 20.5761 47.4337 16.4731 43.6033 13.3968L26.9836 30.0164C29.3268 31.8981 32.1695 33.3967 35.2937 33.3967C43.525 33.3967 49.8233 23.0045 50.0877 22.5627Z" fill="#DADAE5"/>
<path id="Path_7" d="M38.8348 18.1656C37.9277 17.258 36.6748 16.6962 35.2936 16.6962C32.5309 16.6962 30.2834 18.9436 30.2834 21.7064C30.2834 23.088 30.8453 24.3404 31.7525 25.2476C32.66 26.1547 33.912 26.7166 35.2936 26.7166C38.0564 26.7166 40.3038 24.4691 40.3038 21.7064C40.3038 20.3252 39.742 19.0728 38.8348 18.1656Z" fill="#64E1DC"/>
<path id="Path_8" d="M40.3038 21.7064C40.3038 20.3252 39.742 19.0728 38.8348 18.1656L31.7524 25.2476C32.6596 26.1547 33.912 26.7166 35.2936 26.7166C38.0564 26.7166 40.3038 24.4691 40.3038 21.7064Z" fill="#00C8C8"/>
<path id="Path_9" d="M36.4743 20.5257C36.172 20.2234 35.7545 20.0364 35.2936 20.0364C34.3721 20.0364 33.6237 20.7849 33.6237 21.7064C33.6237 22.1673 33.8107 22.5848 34.1129 22.887C34.4151 23.1893 34.8326 23.3763 35.2936 23.3763C36.2151 23.3763 36.9635 22.6279 36.9635 21.7064C36.9635 21.2458 36.7765 20.8283 36.4743 20.5257Z" fill="#676E74"/>
<path id="Path_10" d="M36.9635 21.7064C36.9635 21.2458 36.7765 20.8284 36.4743 20.5257L34.1129 22.8871C34.4152 23.1893 34.8326 23.3763 35.2936 23.3763C36.2151 23.3763 36.9635 22.6279 36.9635 21.7064Z" fill="#474F54"/>
<path id="Path_11" d="M18.1091 38.8909L14.5849 35.3671L0 49.9189L3.54032 53.4597L7.08108 57L21.6659 42.4482L18.1091 38.8909Z" fill="#575C60"/>
<path id="Path_12" d="M21.6659 42.4482L18.109 38.8909L3.54028 53.4597L7.08104 57L21.6659 42.4482Z" fill="#333637"/>
</g>
</g>
</g>
<defs>
<filter id="filter0_d_0_1" x="-245" y="-141" width="349" height="260" filterUnits="userSpaceOnUse" color-interpolation-filters="sRGB">
<feFlood flood-opacity="0" result="BackgroundImageFix"/>
<feColorMatrix in="SourceAlpha" type="matrix" values="0 0 0 0 0 0 0 0 0 0 0 0 0 0 0 0 0 0 127 0" result="hardAlpha"/>
<feMorphology radius="11" operator="erode" in="SourceAlpha" result="effect1_dropShadow_0_1"/>
<feOffset dy="15"/>
<feGaussianBlur stdDeviation="15"/>
<feColorMatrix type="matrix" values="0 0 0 0 0.513137 0 0 0 0 0.651706 0 0 0 0 0.824615 0 0 0 0.5 0"/>
<feBlend mode="normal" in2="BackgroundImageFix" result="effect1_dropShadow_0_1"/>
<feBlend mode="normal" in="SourceGraphic" in2="effect1_dropShadow_0_1" result="shape"/>
</filter>
</defs>
</svg>
